<svg xmlns="http://www.w3.org/2000/svg" width="190" height="190" viewBox="0 0 190 190">
  <g id="Group_307" data-name="Group 307" transform="translate(-775 -176)">
    <g id="Ellipse_30" data-name="Ellipse 30" transform="translate(775 176)" fill="#fff" stroke="#0abab5" stroke-width="4">
      <circle cx="95" cy="95" r="95" stroke="none"/>
      <circle cx="95" cy="95" r="93" fill="none"/>
    </g>
    <path id="Icon_awesome-user-circle" data-name="Icon awesome-user-circle" d="M85.391.563a85.391,85.391,0,1,0,85.391,85.391A85.377,85.377,0,0,0,85.391.563Zm0,33.055a30.3,30.3,0,1,1-30.3,30.3A30.3,30.3,0,0,1,85.391,33.617Zm0,118.446A65.981,65.981,0,0,1,34.948,128.58a38.39,38.39,0,0,1,33.915-20.59,8.425,8.425,0,0,1,2.445.379,45.588,45.588,0,0,0,14.083,2.376,45.415,45.415,0,0,0,14.083-2.376,8.425,8.425,0,0,1,2.445-.379,38.39,38.39,0,0,1,33.915,20.59A65.981,65.981,0,0,1,85.391,152.063Z" transform="translate(784.488 184.925)" fill="#37d5d1"/>
  </g>
</svg>
